<svg width="14" height="20" viewBox="0 0 14 20" fill="none" xmlns="http://www.w3.org/2000/svg">
<path d="M5 20C3.61667 20 2.43767 19.5123 1.463 18.537C0.488333 17.5617 0.000666667 16.3827 0 15C0 14.15 0.191666 13.3667 0.575 12.65C0.958333 11.9333 1.46667 11.35 2.1 10.9C2.33333 10.7333 2.58333 10.675 2.85 10.725C3.11667 10.775 3.33333 10.9167 3.5 11.15C3.66667 11.3833 3.72933 11.6333 3.688 11.9C3.64667 12.1667 3.509 12.3833 3.275 12.55C2.89167 12.8333 2.58333 13.1877 2.35 13.613C2.11667 14.0383 2 14.5007 2 15C2 15.8333 2.29167 16.5417 2.875 17.125C3.45833 17.7083 4.16667 18 5 18C5.5 18 5.96267 17.8833 6.388 17.65C6.81333 17.4167 7.16733 17.1083 7.45 16.725C7.61667 16.4917 7.83333 16.354 8.1 16.312C8.36667 16.27 8.61667 16.3327 8.85 16.5C9.08333 16.6673 9.225 16.884 9.275 17.15C9.325 17.416 9.26667 17.666 9.1 17.9C8.65 18.5333 8.06667 19.0417 7.35 19.425C6.63333 19.8083 5.85 20 5 20ZM13 20C12.7167 20 12.4793 19.904 12.288 19.712C12.0967 19.52 12.0007 19.2827 12 19V15H7C6.45 15 5.97933 14.8043 5.588 14.413C5.19667 14.0217 5.00067 13.5507 5 13V7.00001C5 6.45001 5.196 5.97934 5.588 5.58801C5.98 5.19667 6.45067 5.00067 7 5.00001C7.4 5.00001 7.746 5.08767 8.038 5.26301C8.33 5.43834 8.64233 5.71734 8.975 6.10001C9.725 7.00001 10.4043 7.65834 11.013 8.07501C11.6217 8.49167 12.2757 8.76667 12.975 8.90001C13.2583 8.95001 13.5 9.07501 13.7 9.27501C13.9 9.47501 14 9.71667 14 10C14 10.2833 13.896 10.5167 13.688 10.7C13.48 10.8833 13.2423 10.95 12.975 10.9C12.2417 10.7667 11.5293 10.5333 10.838 10.2C10.1467 9.86667 9.534 9.48334 9 9.05001V12.5H12C12.55 12.5 13.021 12.696 13.413 13.088C13.805 13.48 14.0007 13.9507 14 14.5V19C14 19.2833 13.904 19.521 13.712 19.713C13.52 19.905 13.2827 20.0007 13 20ZM7 4.00001C6.45 4.00001 5.97933 3.80434 5.588 3.41301C5.19667 3.02167 5.00067 2.55067 5 2.00001C4.99933 1.44934 5.19533 0.978673 5.588 0.588007C5.98067 0.19734 6.45133 0.00134009 7 6.75675e-06C7.54867 -0.00132658 8.01967 0.194673 8.413 0.588007C8.80633 0.98134 9.002 1.45201 9 2.00001C8.998 2.54801 8.80233 3.01901 8.413 3.41301C8.02367 3.80701 7.55267 4.00267 7 4.00001Z" fill="black"/>
</svg>
