<svg xmlns="http://www.w3.org/2000/svg" viewBox="0 0 24 24" color="#BBC1C7" fill="none">
<path fill-rule="evenodd" clip-rule="evenodd" d="M4.7015 6.804C4.15545 7.81394 4.11683 8.44568 4.0396 9.70915C4.01362 10.1341 3.99854 10.5675 3.99854 11.0008C3.99854 11.4342 4.01362 11.8676 4.0396 12.2925C4.11683 13.556 4.15545 14.1877 4.7015 15.1977C5.05931 15.8595 6.14076 16.9409 6.80253 17.2987C7.81247 17.8448 8.44421 17.8834 9.70769 17.9606C10.1326 17.9866 10.566 18.0017 10.9994 18.0017C11.4327 18.0017 11.8661 17.9866 12.2911 17.9606C13.5545 17.8834 14.1863 17.8448 15.1962 17.2987C15.3218 17.2308 15.4624 17.1369 15.6104 17.0247L19.2929 20.7073C19.6834 21.0978 20.3166 21.0978 20.7071 20.7073C21.0976 20.3167 21.0976 19.6836 20.7071 19.293L17.0244 15.6103C17.1361 15.4629 17.2296 15.3228 17.2972 15.1977C17.8433 14.1877 17.8819 13.556 17.9591 12.2925C17.9851 11.8676 18.0002 11.4342 18.0002 11.0008C18.0002 10.5675 17.9851 10.1341 17.9591 9.70915C17.8819 8.44568 17.8433 7.81394 17.2972 6.804C16.9394 6.14222 15.858 5.06078 15.1962 4.70297C14.1863 4.15691 13.5545 4.1183 12.2911 4.04107C11.8661 4.01509 11.4327 4 10.9994 4C10.566 4 10.1326 4.01509 9.70769 4.04107C8.44421 4.1183 7.81248 4.15691 6.80253 4.70297C6.14076 5.06078 5.05931 6.14222 4.7015 6.804ZM9.82971 6.03734C10.2196 6.01351 10.6119 6 10.9994 6C11.3868 6 11.7792 6.01351 12.169 6.03734C13.41 6.11319 13.6524 6.14186 14.245 6.46226C14.245 6.46226 14.2514 6.4658 14.2646 6.47405C14.2782 6.48255 14.2966 6.49459 14.3198 6.51072C14.3669 6.54345 14.4256 6.58744 14.4945 6.64323C14.6334 6.75576 14.7901 6.89735 14.9465 7.05371C15.1029 7.21007 15.2445 7.36682 15.357 7.50574C15.4128 7.5746 15.4568 7.63335 15.4895 7.68042C15.5056 7.70361 15.5177 7.72201 15.5262 7.7356C15.5348 7.74939 15.5379 7.75522 15.5379 7.75522C15.8584 8.34784 15.887 8.59022 15.9629 9.83118C15.9867 10.2211 16.0002 10.6134 16.0002 11.0008C16.0002 11.3883 15.9867 11.7806 15.9629 12.1705C15.887 13.4115 15.8584 13.6538 15.5379 14.2465C15.5379 14.2465 15.5348 14.2523 15.5262 14.2661C15.5177 14.2797 15.5056 14.2981 15.4895 14.3213C15.4568 14.3683 15.4128 14.4271 15.357 14.4959C15.2445 14.6349 15.1029 14.7916 14.9465 14.948C14.7901 15.1043 14.6334 15.2459 14.4945 15.3585C14.4256 15.4142 14.3669 15.4582 14.3198 15.491C14.2966 15.5071 14.2782 15.5191 14.2646 15.5276C14.2508 15.5363 14.245 15.5394 14.245 15.5394C13.6524 15.8598 13.41 15.8885 12.169 15.9643C11.7792 15.9882 11.3868 16.0017 10.9994 16.0017C10.6119 16.0017 10.2196 15.9882 9.82971 15.9643C8.58875 15.8885 8.34638 15.8598 7.75375 15.5394C7.75375 15.5394 7.74793 15.5363 7.73414 15.5276C7.72054 15.5191 7.70214 15.5071 7.67895 15.491C7.63188 15.4582 7.57314 15.4142 7.50427 15.3585C7.36536 15.2459 7.2086 15.1043 7.05224 14.948C6.89588 14.7916 6.75429 14.6349 6.64176 14.4959C6.58598 14.4271 6.54199 14.3683 6.50925 14.3213C6.49312 14.2981 6.48108 14.2797 6.47258 14.2661C6.46434 14.2529 6.46079 14.2464 6.46079 14.2464C6.14039 13.6538 6.11173 13.4114 6.03587 12.1705C6.01204 11.7806 5.99854 11.3883 5.99854 11.0008C5.99854 10.6134 6.01204 10.2211 6.03587 9.83118C6.11173 8.59022 6.14037 8.34789 6.46079 7.75526C6.46079 7.75526 6.46434 7.74879 6.47258 7.7356C6.48108 7.72201 6.49312 7.70361 6.50925 7.68042C6.54199 7.63335 6.58598 7.5746 6.64176 7.50574C6.75429 7.36682 6.89588 7.21007 7.05224 7.05371C7.2086 6.89735 7.36536 6.75576 7.50427 6.64323C7.57314 6.58744 7.63188 6.54345 7.67895 6.51072C7.70214 6.49459 7.72054 6.48255 7.73414 6.47405C7.74793 6.46543 7.75375 6.46228 7.75375 6.46228C8.34638 6.14186 8.58875 6.11319 9.82971 6.03734Z" fill="currentColor"/>
</svg>